# xmcd
#
# Track frame offsets:
#	150
#	23619
#	37379
#	59232
#	94493
#	114425
#	131024
#	152130
#	171461
#	186162
#	204427
#	224667
#	248603
#	272816
#	294279
#
# Disc length: 4368 seconds
# Revision: 0
# Processed by: cddbd v1.5.2PL0 Copyright (c) Steve Scherf et al.
# Submitted via: dBpowerAMP V12.0
#
DISCID=ed110e0f
DTITLE=Thad Beckman - Beckman:  Under the Influence (the early years 1988-1990)
DYEAR=2010
DGENRE=Blues
TTITLE0=Let Me Down Easy
TTITLE1=Night Life
TTITLE2=Take A Walk
TTITLE3=Blues In My Pillow
TTITLE4=South Jersey Pineland Blues
TTITLE5=Blues Gone By
TTITLE6=Ain't Got No Mind
TTITLE7=Take A Bow
TTITLE8=Ain't That A Good Thing
TTITLE9=All Night Blues
TTITLE10=Headin' For The Skids
TTITLE11=Pair Of Diamonds
TTITLE12=Stop Telling Me Lies
TTITLE13=Say It Ain't True
TTITLE14=These Boots
EXTD=
EXTT0=
EXTT1=
EXTT2=
EXTT3=
EXTT4=
EXTT5=
EXTT6=
EXTT7=
EXTT8=
EXTT9=
EXTT10=
EXTT11=
EXTT12=
EXTT13=
EXTT14=
PLAYORDER=
